<?xml version="1.0" encoding="UTF-8"?>
<svg xmlns="http://www.w3.org/2000/svg" xmlns:xlink="http://www.w3.org/1999/xlink" width="192px" height="192px" viewBox="0 0 192 191" version="1.1">
<g id="surface1">
<path style=" stroke:none;fill-rule:nonzero;fill:rgb(0%,0%,0%);fill-opacity:1;" d="M 91.890625 56.613281 C 88.28125 61.121094 81.023438 71.089844 81.023438 71.625 C 81.023438 71.738281 80.410156 72.769531 79.679688 73.917969 C 77.683594 77.050781 75.878906 80.792969 74.648438 84.421875 C 73.613281 87.402344 73.535156 88.089844 73.574219 93.015625 C 73.574219 97.601562 73.726562 98.824219 74.574219 101.613281 C 75.878906 105.890625 77.070312 108.488281 79.257812 111.695312 C 80.21875 113.148438 81.023438 114.445312 81.023438 114.5625 C 81.023438 114.714844 81.90625 115.667969 82.980469 116.699219 L 84.941406 118.609375 L 83.367188 116.128906 C 81.484375 113.109375 79.027344 106.65625 78.183594 102.679688 C 77.492188 99.359375 77.375 92.367188 77.992188 89.769531 C 78.488281 87.628906 80.910156 82.28125 82.636719 79.457031 C 84.789062 75.941406 89.011719 69.792969 90.085938 68.570312 C 90.625 67.917969 91.738281 66.46875 92.542969 65.320312 C 93.351562 64.175781 94.425781 62.839844 94.964844 62.34375 L 95.921875 61.425781 L 97.230469 62.839844 C 97.921875 63.601562 98.648438 64.519531 98.839844 64.863281 C 99.035156 65.246094 100.261719 66.886719 101.566406 68.570312 C 107.480469 76.246094 112.167969 84.460938 113.472656 89.425781 C 114.277344 92.519531 114.277344 99.433594 113.472656 102.910156 C 112.242188 108.144531 110.054688 113.605469 107.941406 116.699219 C 106.636719 118.574219 107.019531 118.496094 108.789062 116.585938 C 112.78125 112.269531 116.082031 105.96875 117.503906 100.046875 C 118.65625 95.078125 118.464844 88.699219 117.042969 84.421875 C 115.507812 79.875 111.246094 72.082031 107.136719 66.316406 C 103.71875 61.578125 96.191406 51.953125 95.847656 51.953125 C 95.769531 51.953125 94.003906 54.054688 91.890625 56.613281 Z M 91.890625 56.613281 "/>
<path style=" stroke:none;fill-rule:nonzero;fill:rgb(0%,0%,0%);fill-opacity:1;" d="M 45.925781 68.796875 C 45.121094 71.433594 44.160156 79.1875 44.160156 82.894531 C 44.160156 87.25 45.195312 94.734375 46.273438 98.097656 C 47.460938 101.878906 50.957031 108.753906 52.875 111.085938 C 58.328125 117.847656 63.9375 122.203125 72.113281 126.25 C 74.535156 127.433594 79.871094 129.230469 80.140625 128.964844 C 80.21875 128.886719 79.371094 128.390625 78.257812 127.855469 C 75.6875 126.554688 70.386719 122.851562 67.429688 120.214844 C 66.164062 119.144531 64.820312 118 64.433594 117.730469 C 63.550781 117.082031 56.832031 108.945312 56.832031 108.488281 C 56.832031 108.296875 56.292969 107.226562 55.640625 106.121094 C 53.875 103.140625 52.300781 98.976562 51.378906 95.003906 C 50.765625 92.101562 50.609375 90.074219 50.609375 83.65625 C 50.574219 79.339844 50.6875 75.253906 50.839844 74.566406 C 51.109375 73.496094 51.300781 73.34375 52.339844 73.34375 C 54.105469 73.34375 59.367188 74.71875 61.746094 75.828125 C 64.742188 77.203125 68.660156 79.875 71 82.167969 C 72.113281 83.238281 73.074219 84.078125 73.152344 84 C 73.535156 83.542969 74.496094 80.753906 74.496094 79.992188 C 74.496094 78.234375 68.46875 73.230469 63.167969 70.554688 C 59.828125 68.875 53.796875 67.269531 49.652344 66.964844 L 46.539062 66.734375 Z M 45.925781 68.796875 "/>
<path style=" stroke:none;fill-rule:nonzero;fill:rgb(0%,0%,0%);fill-opacity:1;" d="M 139.96875 67.117188 C 139.546875 67.195312 137.394531 67.691406 135.167969 68.226562 C 128.945312 69.714844 122.917969 73.230469 118.539062 77.890625 L 116.734375 79.839844 L 117.351562 81.25 C 117.695312 82.054688 118.042969 83.007812 118.15625 83.351562 C 118.273438 83.734375 118.464844 84.039062 118.539062 84.039062 C 118.65625 84.039062 119.847656 83.046875 121.152344 81.785156 C 124.070312 79.113281 129.140625 75.980469 132.289062 74.949219 C 135.398438 73.957031 139.546875 73.191406 140.273438 73.457031 C 141.8125 74.03125 141.621094 90.457031 139.96875 96.835938 C 138.625 102.148438 135.398438 108.335938 131.671875 112.84375 C 128.984375 116.089844 123.800781 121.132812 121.652344 122.582031 C 115.585938 126.632812 112.933594 128.3125 112.203125 128.542969 C 111.707031 128.695312 111.359375 128.886719 111.4375 128.964844 C 111.742188 129.230469 116.582031 127.664062 119.230469 126.402344 C 126.644531 122.890625 132.902344 118.265625 137.355469 112.996094 C 141.503906 108.066406 145.113281 101.230469 146.226562 96.074219 C 148.109375 87.628906 148.03125 76.363281 146.035156 69.027344 L 145.421875 66.851562 L 143.078125 66.886719 C 141.8125 66.925781 140.390625 67.003906 139.96875 67.117188 Z M 139.96875 67.117188 "/>
<path style=" stroke:none;fill-rule:nonzero;fill:rgb(0%,0%,0%);fill-opacity:1;" d="M 40.128906 101.078125 C 34.214844 102.300781 29.03125 104.171875 25.882812 106.234375 C 24.84375 106.921875 22.847656 108.410156 21.390625 109.558594 L 18.816406 111.660156 L 20.390625 114.5625 C 22.808594 119.03125 27.226562 124.1875 32.140625 128.277344 C 39.742188 134.65625 47.769531 138.054688 57.371094 139.046875 C 64.628906 139.8125 74.035156 138.207031 81.214844 135.035156 C 82.292969 134.578125 83.558594 134.082031 84.097656 133.96875 C 84.632812 133.816406 85.746094 133.28125 86.59375 132.707031 C 87.4375 132.171875 87.78125 131.867188 87.359375 132.019531 C 82.675781 133.699219 72.960938 135.226562 66.929688 135.226562 C 62.785156 135.226562 55.335938 134.195312 52.414062 133.203125 C 47.769531 131.597656 41.972656 128.429688 38.515625 125.523438 C 35.519531 123.003906 29.105469 116.394531 27.761719 114.484375 L 26.726562 112.996094 L 27.839844 112.078125 C 29.566406 110.703125 34.597656 108.183594 37.746094 107.113281 C 39.28125 106.578125 42.125 105.96875 44.082031 105.738281 C 46.042969 105.46875 47.578125 105.164062 47.5 105.050781 C 47.425781 104.933594 46.964844 103.941406 46.503906 102.835938 L 45.582031 100.847656 L 43.238281 100.886719 C 41.972656 100.925781 40.550781 101 40.128906 101.078125 Z M 40.128906 101.078125 "/>
<path style=" stroke:none;fill-rule:nonzero;fill:rgb(0%,0%,0%);fill-opacity:1;" d="M 145.34375 102.949219 C 144.804688 104.171875 144.421875 105.203125 144.460938 105.242188 C 144.539062 105.277344 146.152344 105.507812 148.070312 105.738281 C 149.992188 106.003906 152.5625 106.539062 153.832031 106.960938 C 156.75 107.953125 162.664062 110.894531 164.160156 112.078125 L 165.3125 112.996094 L 164.390625 114.292969 C 162.394531 116.96875 157.554688 121.933594 154.214844 124.683594 C 145.765625 131.675781 138.433594 134.503906 127.296875 135.074219 C 120.421875 135.457031 110.09375 134.042969 104.257812 131.980469 C 103.832031 131.828125 104.101562 132.09375 104.832031 132.59375 C 107.097656 134.042969 115.929688 137.253906 120.039062 138.09375 C 135.128906 141.1875 148.222656 137.902344 160.128906 128.007812 C 165.65625 123.386719 172.800781 114.371094 172.800781 111.964844 C 172.800781 110.511719 165.847656 105.699219 161.011719 103.75 C 156.363281 101.878906 153.601562 101.191406 149.683594 100.960938 L 146.34375 100.734375 Z M 145.34375 102.949219 "/>
</g>
</svg>
