<?xml version="1.0" encoding="UTF-8"?>
<svg xmlns="http://www.w3.org/2000/svg" xmlns:xlink="http://www.w3.org/1999/xlink" width="512px" height="512px" viewBox="0 0 512 512" version="1.1">
<g id="surface1">
<path style=" stroke:none;fill-rule:nonzero;fill:rgb(0%,0%,0%);fill-opacity:1;" d="M 245.039062 152.300781 C 235.414062 164.324219 216.0625 190.90625 216.0625 192.332031 C 216.0625 192.632812 214.425781 195.386719 212.480469 198.449219 C 206.929688 207.230469 202.429688 216.632812 199.0625 226.457031 C 196.300781 234.40625 196.09375 236.238281 196.199219 249.375 C 196.199219 261.605469 196.605469 264.863281 198.863281 272.300781 C 202.34375 283.710938 205.519531 290.632812 211.355469 299.1875 C 213.914062 303.0625 216.0625 306.519531 216.0625 306.835938 C 216.0625 307.238281 218.414062 309.78125 221.28125 312.53125 L 226.507812 317.625 L 222.3125 311.011719 C 217.289062 302.957031 210.738281 285.75 208.492188 275.144531 C 206.644531 266.289062 206.332031 247.644531 207.980469 240.71875 C 209.300781 235.011719 215.761719 220.75 220.367188 213.21875 C 226.105469 203.84375 237.367188 187.449219 240.230469 184.1875 C 242.507812 181.371094 244.691406 178.480469 246.78125 175.519531 C 248.9375 172.46875 251.800781 168.90625 253.238281 167.585938 L 255.792969 165.136719 L 259.28125 168.90625 C 261.125 170.9375 263.0625 173.386719 263.574219 174.300781 C 264.09375 175.324219 267.367188 179.699219 270.84375 184.1875 C 286.613281 204.65625 299.113281 226.558594 302.59375 239.800781 C 304.738281 248.054688 304.738281 266.492188 302.59375 275.761719 C 299.316406 289.71875 293.480469 304.28125 287.84375 312.535156 C 284.367188 317.53125 285.386719 317.324219 290.105469 312.230469 C 300.75 300.71875 309.550781 283.917969 313.34375 268.121094 C 316.414062 254.875 315.902344 237.863281 312.113281 226.457031 C 308.019531 214.332031 296.65625 193.550781 285.699219 178.175781 C 276.585938 165.542969 256.507812 139.875 255.59375 139.875 C 255.386719 139.875 250.675781 145.480469 245.042969 152.300781 M 245.042969 152.300781 "/>
<path style=" stroke:none;fill-rule:nonzero;fill:rgb(0%,0%,0%);fill-opacity:1;" d="M 122.46875 184.792969 C 120.324219 191.824219 117.761719 212.5 117.761719 222.386719 C 117.761719 234 120.519531 253.960938 123.394531 262.929688 C 126.5625 273.007812 135.886719 291.34375 141 297.5625 C 155.542969 315.59375 170.5 327.207031 192.300781 338 C 198.761719 341.15625 212.988281 345.945312 213.710938 345.238281 C 213.917969 345.03125 211.65625 343.710938 208.6875 342.28125 C 201.835938 338.8125 187.699219 328.9375 179.8125 321.90625 C 176.4375 319.054688 172.851562 316 171.824219 315.28125 C 169.46875 313.550781 151.550781 291.851562 151.550781 290.632812 C 151.550781 290.125 150.113281 287.273438 148.375 284.324219 C 143.667969 276.375 139.46875 265.273438 137.011719 254.675781 C 135.375 246.9375 134.957031 241.53125 134.957031 224.414062 C 134.863281 212.90625 135.164062 202.011719 135.570312 200.175781 C 136.289062 197.324219 136.800781 196.917969 139.570312 196.917969 C 144.28125 196.917969 158.3125 200.585938 164.65625 203.542969 C 172.644531 207.207031 183.09375 214.332031 189.332031 220.449219 C 192.300781 223.300781 194.863281 225.542969 195.070312 225.332031 C 196.09375 224.113281 198.65625 216.675781 198.65625 214.644531 C 198.65625 209.957031 182.585938 196.613281 168.449219 189.480469 C 159.542969 185 143.457031 180.71875 132.40625 179.90625 L 124.105469 179.292969 Z M 373.25 180.3125 C 372.125 180.519531 366.386719 181.84375 360.449219 183.273438 C 343.851562 187.238281 327.78125 196.613281 316.105469 209.042969 L 311.289062 214.238281 L 312.9375 218 C 313.851562 220.148438 314.78125 222.6875 315.082031 223.605469 C 315.394531 224.625 315.90625 225.4375 316.105469 225.4375 C 316.414062 225.4375 319.59375 222.792969 323.070312 219.425781 C 330.851562 212.300781 344.375 203.945312 352.769531 201.199219 C 361.0625 198.550781 372.125 196.507812 374.0625 197.21875 C 378.167969 198.75 377.65625 242.550781 373.25 259.5625 C 369.667969 273.726562 361.0625 290.230469 351.125 302.25 C 343.957031 310.90625 330.136719 324.355469 324.40625 328.21875 C 308.230469 339.019531 301.15625 343.5 299.207031 344.113281 C 297.886719 344.519531 296.957031 345.03125 297.164062 345.238281 C 297.980469 345.945312 310.886719 341.773438 317.945312 338.40625 C 337.71875 329.042969 354.40625 316.710938 366.28125 302.65625 C 377.34375 289.507812 386.96875 271.28125 389.9375 257.53125 C 394.957031 235.011719 394.75 204.96875 389.425781 185.40625 L 387.792969 179.605469 L 381.542969 179.699219 C 378.164062 179.800781 374.375 180.011719 373.246094 180.3125 M 373.246094 180.3125 "/>
<path style=" stroke:none;fill-rule:nonzero;fill:rgb(0%,0%,0%);fill-opacity:1;" d="M 107.011719 270.875 C 91.238281 274.136719 77.414062 279.125 69.019531 284.625 C 66.246094 286.457031 60.929688 290.425781 57.042969 293.492188 L 50.175781 299.09375 L 54.375 306.835938 C 60.824219 318.75 72.605469 332.5 85.710938 343.40625 C 105.980469 360.417969 127.386719 369.480469 152.988281 372.125 C 172.34375 374.167969 197.425781 369.886719 216.574219 361.425781 C 219.449219 360.207031 222.824219 358.886719 224.261719 358.585938 C 225.6875 358.175781 228.65625 356.75 230.917969 355.21875 C 233.167969 353.792969 234.082031 352.980469 232.957031 353.386719 C 220.46875 357.867188 194.5625 361.9375 178.476562 361.9375 C 167.425781 361.9375 147.5625 359.1875 139.769531 356.542969 C 127.386719 352.261719 111.929688 343.8125 102.710938 336.0625 C 94.71875 329.339844 77.617188 311.71875 74.03125 306.625 L 71.273438 302.65625 L 74.238281 300.207031 C 78.84375 296.542969 92.261719 289.824219 100.65625 286.96875 C 104.75 285.542969 112.332031 283.917969 117.550781 283.300781 C 122.78125 282.582031 126.875 281.769531 126.667969 281.46875 C 126.46875 281.15625 125.238281 278.507812 124.011719 275.5625 L 121.550781 270.261719 L 115.300781 270.367188 C 111.929688 270.46875 108.136719 270.667969 107.007812 270.875 M 387.585938 275.867188 C 386.144531 279.125 385.125 281.875 385.230469 281.980469 C 385.4375 282.070312 389.738281 282.6875 394.855469 283.300781 C 399.980469 284.011719 406.835938 285.4375 410.21875 286.5625 C 418 289.207031 433.769531 297.054688 437.761719 300.207031 L 440.835938 302.65625 L 438.375 306.113281 C 433.054688 313.25 420.148438 326.488281 411.238281 333.820312 C 388.707031 352.46875 369.15625 360.007812 339.457031 361.53125 C 321.125 362.550781 293.585938 358.78125 278.019531 353.28125 C 276.886719 352.875 277.605469 353.585938 279.550781 354.917969 C 285.59375 358.78125 309.148438 367.34375 320.105469 369.585938 C 360.34375 377.835938 395.261719 369.070312 427.011719 342.6875 C 441.75 330.367188 460.800781 306.324219 460.800781 299.90625 C 460.800781 296.03125 442.261719 283.199219 429.363281 278 C 416.96875 273.011719 409.601562 271.175781 399.15625 270.558594 L 390.25 269.957031 Z M 387.585938 275.867188 "/>
</g>
</svg>
