<?xml version="1.0" standalone="no"?>
<!DOCTYPE svg PUBLIC "-//W3C//DTD SVG 20010904//EN"
 "http://www.w3.org/TR/2001/REC-SVG-20010904/DTD/svg10.dtd">
<svg version="1.0" xmlns="http://www.w3.org/2000/svg"
 width="300.000000pt" height="300.000000pt" viewBox="0 0 300.000000 300.000000"
 preserveAspectRatio="xMidYMid meet">
<metadata>
Created by potrace 1.10, written by Peter Selinger 2001-2011
</metadata>
<g transform="translate(0.000000,300.000000) scale(0.100000,-0.100000)"
fill="#000000" stroke="none">
<path d="M654 2810 c-38 -15 -74 -68 -74 -110 0 -21 -4 -42 -10 -45 -16 -10
-12 -47 10 -90 11 -21 23 -54 26 -72 6 -30 2 -38 -38 -78 -34 -34 -58 -48
-108 -62 -105 -29 -160 -107 -147 -208 4 -26 -1 -59 -13 -95 -11 -30 -19 -69
-20 -85 0 -18 -14 -50 -34 -78 -26 -37 -41 -75 -60 -157 -30 -128 -53 -190
-71 -190 -7 0 -31 -15 -54 -34 -22 -19 -46 -36 -53 -39 -7 -2 -10 -7 -6 -11 8
-9 43 9 81 40 16 13 35 24 43 24 15 0 53 68 60 108 27 144 80 290 92 253 13
-39 -6 -130 -38 -186 -19 -33 -35 -66 -36 -75 -1 -8 -9 -32 -18 -52 -9 -21
-14 -38 -11 -38 3 0 31 55 63 123 32 67 69 131 82 142 l24 20 -22 -36 c-37
-61 -24 -58 15 4 20 31 37 56 39 54 10 -10 -29 -112 -57 -152 -63 -88 -101
-160 -109 -210 -5 -27 -16 -67 -24 -87 -9 -21 -16 -51 -16 -68 0 -16 -5 -30
-11 -30 -8 0 -9 15 -4 46 9 62 -9 50 -25 -16 -14 -58 -36 -82 -27 -29 20 118
21 118 -23 15 -29 -69 -38 -49 -11 25 13 33 21 63 18 65 -3 3 -19 -18 -36 -47
-45 -73 -49 -54 -6 30 32 64 38 71 59 65 26 -6 66 10 66 27 0 5 -11 2 -25 -7
-14 -9 -32 -13 -42 -10 -19 8 -103 -14 -103 -26 0 -4 9 -8 20 -8 11 0 20 -2
20 -5 0 -3 -9 -23 -20 -45 -27 -52 -26 -80 1 -80 14 0 19 -5 16 -14 -8 -21 13
-37 35 -25 12 6 18 6 18 -1 0 -15 28 -12 37 4 4 8 19 16 33 18 18 2 26 10 28
28 1 14 11 54 22 90 11 36 22 81 25 101 3 20 24 65 48 99 23 34 54 81 70 104
15 23 31 66 36 96 9 55 54 149 64 133 3 -4 10 -35 17 -68 14 -74 9 -189 -13
-275 -35 -137 -57 -261 -57 -317 0 -56 20 -161 40 -213 21 -56 19 -133 -6
-229 -28 -101 -27 -118 11 -330 27 -150 16 -203 -52 -260 l-38 -31 24 -20 c18
-15 38 -20 83 -20 52 0 64 4 85 26 23 25 24 31 21 157 -3 130 7 198 44 307 7
19 13 82 14 140 1 65 7 123 17 152 9 26 21 92 27 145 17 148 35 241 42 218 4
-11 14 -74 23 -140 9 -66 25 -158 36 -205 13 -55 20 -114 19 -165 -1 -55 6
-107 20 -165 28 -105 50 -232 43 -243 -2 -4 -6 -45 -8 -90 -3 -77 -1 -84 23
-109 22 -24 34 -28 78 -28 58 0 104 16 104 36 0 7 -12 22 -27 34 -69 54 -79
123 -43 308 26 132 25 212 -1 297 -25 82 -22 168 10 270 40 126 34 212 -35
490 -27 109 -17 325 15 325 11 0 46 -85 60 -145 7 -27 29 -74 49 -104 76 -110
102 -157 102 -183 0 -16 9 -54 19 -85 11 -32 22 -75 26 -97 5 -33 9 -38 29
-34 15 3 27 -2 35 -14 12 -20 41 -25 41 -7 0 8 4 8 13 1 18 -15 41 2 35 25 -4
16 -1 19 18 15 32 -6 31 14 -1 78 l-25 49 28 3 c35 4 42 35 10 47 -13 5 -30
16 -38 26 -7 9 -31 25 -51 36 -35 17 -40 26 -64 99 -14 45 -25 90 -25 101 0
35 -39 132 -64 158 -16 17 -27 44 -32 76 -4 28 -13 68 -21 90 -8 22 -14 67
-14 101 3 111 -35 163 -140 195 -47 14 -80 32 -109 59 -41 38 -43 41 -37 85 4
25 13 55 21 68 9 12 16 36 16 52 2 41 -19 125 -38 153 -29 45 -103 65 -158 42z
m129 -50 c22 -25 27 -40 27 -81 0 -35 3 -48 12 -43 13 8 3 -56 -11 -66 -4 -3
-11 -16 -14 -30 -6 -25 -72 -100 -87 -100 -33 0 -101 97 -125 179 -6 20 -4 23
10 18 14 -6 16 -2 10 23 -24 110 103 182 178 100z m-126 -363 l6 -57 -29 0
c-16 0 -46 3 -67 6 l-38 7 35 24 c40 26 56 51 56 84 0 21 1 22 16 8 8 -9 18
-41 21 -72z m183 -10 l41 -34 -32 -7 c-17 -3 -47 -6 -66 -6 -34 0 -34 0 -28
38 4 20 12 53 18 72 l10 35 9 -32 c5 -18 26 -47 48 -66z m-110 -59 c0 -56 4
-88 9 -82 5 5 11 20 13 34 4 36 31 36 72 0 54 -48 87 -124 93 -218 3 -46 2
-82 -4 -85 -5 -3 -41 6 -78 22 -79 31 -94 53 -95 136 0 28 -7 59 -16 70 -14
19 -16 19 -28 3 -7 -10 -16 -46 -20 -80 -3 -34 -12 -71 -19 -82 -15 -22 -136
-78 -151 -69 -13 9 0 163 17 203 19 44 59 98 87 117 30 21 60 8 60 -28 0 -16
5 -29 10 -29 6 0 10 37 10 90 0 83 1 90 20 90 19 0 20 -7 20 -92z m-168 -4
l36 -6 -41 -34 c-139 -111 -172 -121 -75 -24 39 39 40 41 12 25 -18 -10 -50
-47 -73 -81 -23 -35 -44 -64 -46 -64 -10 0 20 91 42 130 16 26 20 40 11 32
-25 -20 -55 -92 -63 -151 -9 -64 -25 -51 -25 22 0 121 78 174 222 151z m436
-51 c28 -53 51 -133 39 -133 -3 0 -19 24 -35 53 -29 51 -83 107 -103 107 -5 0
8 -15 28 -34 21 -19 47 -49 57 -68 19 -32 19 -33 0 -16 -52 47 -103 88 -137
111 l-38 26 28 4 c15 2 51 5 79 6 l51 1 31 -57z m32 20 c35 -33 56 -103 46
-156 -10 -51 -22 -39 -29 29 -4 38 -16 73 -36 105 -34 55 -26 63 19 22z m-525
-90 c-7 -19 -31 -115 -37 -148 -4 -20 -4 -20 -15 0 -6 11 -14 39 -18 62 -6 39
-4 45 26 73 38 34 55 39 44 13z m442 -9 c36 -28 43 -63 22 -123 -16 -46 -26
-38 -32 27 -2 32 -12 73 -21 90 -20 39 -13 40 31 6z m-525 -132 c1 -64 -16
-119 -54 -176 -27 -42 -33 -46 -39 -30 -7 18 -8 18 -8 -1 -1 -11 -6 -27 -12
-35 -7 -11 -9 13 -5 85 4 98 25 199 34 162 2 -9 -2 -33 -8 -53 -7 -19 -10 -38
-7 -41 3 -2 13 23 23 57 9 33 26 72 37 87 17 22 21 23 29 9 5 -9 9 -38 10 -64z
m610 56 c8 -13 25 -54 37 -91 23 -69 39 -89 21 -26 -15 53 -10 80 6 29 20 -62
31 -226 16 -216 -7 4 -13 28 -13 54 l-2 47 -6 -40 -6 -40 -32 44 c-47 63 -67
135 -59 204 8 62 16 69 38 35z m-312 -64 c0 -25 -15 -33 -23 -11 -6 18 4 48
14 41 5 -3 9 -16 9 -30z m238 -80 c-6 -21 -28 -57 -47 -79 -23 -26 -26 -31 -8
-16 36 32 37 8 1 -45 -15 -21 -19 -32 -10 -25 15 12 16 6 16 -69 0 -79 -2 -85
-34 -124 -18 -23 -41 -56 -50 -73 -9 -18 -18 -33 -20 -33 -10 0 44 161 67 201
15 25 27 50 27 55 0 5 -12 -10 -26 -33 -14 -24 -26 -43 -27 -43 -1 0 -2 39 -2
87 0 49 -3 107 -8 131 l-7 42 34 0 c49 0 65 8 82 42 21 40 26 31 12 -18z
m-464 -16 c6 -4 28 -8 50 -8 38 0 38 -1 32 -31 -3 -17 -6 -77 -6 -133 -1 -106
1 -104 -38 -49 -7 10 -1 -4 13 -30 24 -43 68 -177 61 -184 -2 -2 -18 20 -37
49 -19 28 -42 63 -51 77 -14 20 -17 43 -15 98 1 40 4 73 8 73 3 0 11 -6 19
-12 7 -7 2 3 -12 22 -30 42 -41 70 -27 70 5 0 1 12 -10 28 -10 15 -22 41 -26
57 l-6 30 17 -25 c10 -14 23 -28 28 -32z m201 -13 l0 -50 -32 3 c-17 2 -41 -1
-52 -7 -18 -10 -19 -9 -11 20 15 50 53 92 80 87 11 -2 15 -16 15 -53z m83 33
c33 -37 58 -114 28 -88 -8 6 -30 10 -48 8 l-33 -3 -3 53 c-3 45 -1 52 16 52
10 0 28 -10 40 -22z m-363 -58 c-35 -70 -41 -60 -7 12 15 31 28 53 30 48 2 -5
-9 -32 -23 -60z m617 -37 c6 -7 6 -13 1 -13 -13 0 -53 74 -52 96 0 11 9 -1 20
-26 11 -24 25 -50 31 -57z m-334 -50 l-3 -48 -50 0 c-47 0 -50 2 -53 27 -6 48
13 68 64 68 l45 0 -3 -47z m116 25 c21 -30 20 -66 -1 -71 -10 -3 -35 -5 -55
-6 l-38 -2 0 51 0 50 39 0 c30 0 44 -6 55 -22z m364 -31 c18 -39 42 -137 47
-192 4 -43 46 -106 80 -121 18 -7 37 -19 40 -25 4 -6 21 -20 39 -31 l31 -20
-30 7 c-16 4 -48 9 -70 12 -22 3 -46 10 -53 16 -7 5 -15 7 -18 4 -10 -10 44
-39 67 -35 18 2 28 -9 56 -60 39 -73 38 -94 -3 -33 -37 56 -48 52 -24 -9 21
-52 27 -92 12 -74 -5 5 -19 35 -32 67 -26 67 -36 69 -20 4 19 -75 6 -89 -17
-17 l-21 65 -1 -48 c-1 -55 -21 -56 -21 -1 0 19 -6 47 -14 62 -8 15 -17 50
-21 77 -8 54 -36 107 -101 197 -24 33 -47 79 -54 108 -13 55 -7 80 9 37 5 -14
14 -28 20 -32 7 -4 8 1 4 12 -6 17 -5 17 13 1 11 -9 37 -53 58 -96 21 -43 45
-79 52 -79 18 0 19 -1 -16 51 -49 72 -70 148 -54 190 8 22 18 13 42 -37z
m-489 -71 c7 -8 11 -27 9 -43 -3 -25 -8 -28 -41 -31 -21 -2 -45 2 -53 9 -14
12 -19 60 -7 72 12 13 80 7 92 -7z m137 -10 c3 -13 1 -34 -6 -46 -9 -17 -19
-21 -53 -18 -38 3 -42 6 -45 31 -6 47 3 57 52 57 40 0 46 -3 52 -24z m-126
-172 c0 -54 4 -94 10 -94 6 0 9 38 7 95 l-2 94 47 -2 c26 -2 50 -6 54 -10 10
-10 -25 -138 -49 -181 -39 -69 -87 -64 -126 12 -22 44 -46 145 -39 164 3 8 24
14 52 15 l46 1 0 -94z m-209 -134 c-19 -64 -40 -272 -25 -257 4 4 7 24 7 44
-1 28 5 13 23 -52 25 -98 29 -135 14 -135 -5 0 -10 -12 -10 -27 -1 -26 -2 -27
-14 -10 -8 10 -24 55 -36 100 -27 98 -29 212 -7 308 9 37 21 95 26 130 6 34
16 66 23 70 23 14 22 -96 -1 -171z m429 135 l6 50 12 -60 c7 -33 22 -98 33
-145 29 -129 25 -220 -13 -337 l-31 -98 -15 35 c-16 38 -12 93 12 175 l14 50
4 -55 c3 -32 5 -9 6 57 2 95 -2 124 -23 190 -16 50 -24 98 -23 133 l2 55 5
-50 5 -50 6 50z m-355 -30 c21 -112 38 -192 55 -255 11 -41 22 -115 25 -165
l5 -90 -14 75 c-8 41 -27 116 -42 165 -45 150 -51 177 -58 255 -6 70 -6 74 9
55 9 -11 18 -29 20 -40z m313 -33 c-4 -44 -19 -114 -33 -158 -39 -118 -57
-192 -66 -264 -6 -53 -7 -45 -4 45 3 84 11 134 33 210 16 55 32 124 36 154 15
113 45 124 34 13z m-252 -53 c8 -16 15 -47 16 -71 l1 -43 4 38 c5 41 17 47 33
16 9 -15 8 -44 -1 -110 -7 -49 -16 -89 -20 -89 -4 0 -11 32 -15 70 -3 39 -10
70 -15 70 -8 0 -31 70 -45 140 -6 32 -5 33 10 21 10 -8 24 -27 32 -42z m184
-61 c-16 -54 -24 -68 -32 -57 -7 10 -8 8 -5 -11 3 -14 0 -54 -7 -90 l-12 -65
-12 78 c-16 103 -15 142 3 157 13 11 15 8 16 -21 1 -32 2 -32 10 9 4 24 18 60
31 80 21 34 23 35 26 14 2 -13 -6 -55 -18 -94z m-249 -57 c23 -68 21 -124 -6
-202 -20 -55 -19 -89 4 -149 18 -46 18 -55 5 -85 -32 -78 -8 -57 38 33 6 12
15 22 19 22 10 0 -2 -35 -37 -106 -21 -43 -26 -73 -35 -220 -5 -93 -8 -223 -5
-290 6 -111 4 -122 -14 -142 -22 -24 -50 -29 -50 -10 0 9 -3 9 -12 0 -16 -16
-31 -15 -22 1 5 8 2 8 -9 -2 -10 -8 -17 -9 -17 -3 0 6 -10 9 -22 7 -20 -4 -19
-1 9 20 63 50 73 79 72 211 0 79 -3 112 -9 99 -6 -14 -8 -4 -4 30 3 28 0 77
-5 110 -10 60 -10 60 -6 -25 2 -55 1 -74 -5 -55 -10 40 -11 195 0 220 10 22
13 12 12 -40 -1 -30 -1 -30 8 -5 8 21 9 19 5 -14 -5 -47 11 -233 29 -318 11
-56 13 -60 20 -34 4 16 3 32 -2 35 -25 16 -41 280 -23 376 l7 40 8 -44 c5 -25
9 -108 9 -185 l1 -141 10 89 c6 62 5 119 -3 185 -14 108 -16 221 -6 297 5 38
1 71 -14 126 -25 90 -27 185 -4 259 l16 54 9 -40 c5 -22 18 -69 29 -104z m365
-56 c-2 -38 -14 -97 -25 -129 -25 -71 -26 -104 -6 -153 10 -24 14 -53 10 -82
-5 -45 -5 -45 6 -11 19 63 26 52 25 -42 0 -54 -2 -78 -6 -58 -8 50 -4 -362 5
-444 8 -77 32 -126 70 -146 30 -16 33 -30 5 -25 -11 2 -20 -1 -20 -7 0 -6 -7
-5 -17 3 -11 10 -14 10 -9 2 4 -7 2 -13 -3 -13 -6 0 -11 5 -11 10 0 6 -5 10
-11 10 -5 0 -7 -4 -4 -10 12 -20 -28 -9 -49 13 -22 24 -23 28 -10 227 4 61 2
81 -5 70 -8 -11 -10 3 -6 50 3 45 2 53 -3 25 l-7 -40 -8 34 c-4 18 -7 52 -7
75 0 26 -3 36 -9 28 -5 -9 -10 -1 -14 25 -10 60 -8 135 3 128 6 -3 10 -15 10
-26 0 -10 4 -19 10 -19 5 0 11 -37 13 -82 l3 -83 2 91 c2 81 -1 96 -24 140
-15 27 -33 67 -40 89 l-14 40 25 -30 c14 -16 32 -43 40 -60 17 -35 21 -9 4 29
-9 20 -8 33 5 66 21 53 20 100 -4 194 -21 84 -22 77 22 230 l22 79 19 -64 c13
-47 17 -83 13 -134z m-312 -127 c22 -108 28 -160 17 -154 -5 4 -12 -3 -16 -14
-15 -48 -59 7 -59 74 0 28 33 166 40 166 1 0 9 -33 18 -72z m229 -8 c21 -72
21 -100 3 -145 -17 -40 -23 -42 -45 -18 -14 14 -15 30 -10 92 8 83 18 131 28
131 3 0 14 -27 24 -60z m-333 -268 c0 -7 -4 -10 -10 -7 -5 3 -8 0 -5 -7 3 -7
1 -26 -4 -43 -7 -24 -9 -13 -9 50 0 76 0 78 13 50 8 -16 14 -36 15 -43z m470
-169 c0 -23 -5 -77 -12 -120 -11 -72 -13 -75 -20 -43 -5 25 -6 18 -3 -25 3
-51 2 -56 -7 -31 -7 20 -7 63 1 146 6 65 11 140 12 167 l1 48 14 -50 c7 -27
14 -69 14 -92z m-385 -42 c-5 -13 -7 -14 -16 -1 -6 10 -7 2 -3 -25 3 -22 1
-51 -5 -65 -8 -21 -10 -15 -10 36 -1 86 10 184 20 178 5 -3 10 5 11 18 1 13 4
-10 5 -51 2 -41 1 -81 -2 -90z"/>
<path d="M1140 1677 c0 -10 69 -147 75 -147 6 0 -43 109 -61 134 -8 11 -14 17
-14 13z"/>
<path d="M1200 1612 c0 -17 30 -75 36 -69 3 3 -4 22 -15 44 -11 21 -20 32 -21
25z"/>
<path d="M900 844 c-9 -20 -14 -75 -16 -179 l-2 -150 7 145 c4 82 13 155 20
168 7 13 11 28 9 34 -2 6 -10 -3 -18 -18z"/>
<path d="M910 474 c0 -11 -5 -25 -11 -31 -8 -8 -9 -25 -4 -50 8 -38 9 -37 16
27 5 35 6 66 4 69 -3 2 -5 -5 -5 -15z"/>
<path d="M2251 2803 c-35 -17 -70 -77 -71 -120 0 -13 -4 -23 -10 -23 -18 0
-11 -46 15 -94 24 -45 25 -57 9 -117 -6 -22 -88 -79 -113 -79 -35 0 -94 -29
-128 -62 -40 -39 -56 -83 -52 -151 1 -29 -5 -76 -14 -106 -9 -30 -17 -64 -17
-75 0 -12 -9 -37 -20 -56 -52 -91 -62 -117 -76 -188 -25 -133 -44 -182 -78
-199 -17 -9 -52 -34 -78 -57 -37 -32 -45 -43 -36 -54 7 -7 22 -12 35 -9 13 2
23 3 23 2 0 -2 -11 -27 -25 -56 -25 -54 -20 -84 11 -72 9 3 14 -2 14 -15 0
-27 17 -37 35 -22 11 9 15 9 15 1 0 -16 27 -14 37 3 4 8 17 15 27 17 11 2 22
15 26 29 7 24 38 164 46 205 2 11 19 45 38 75 81 128 96 157 112 224 20 82 71
197 78 175 2 -8 14 -42 25 -76 11 -34 21 -82 22 -105 2 -55 -15 -177 -35 -253
-9 -32 -16 -74 -16 -93 0 -19 -7 -62 -16 -96 -16 -62 -16 -115 4 -365 6 -74 4
-92 -20 -165 -31 -93 -35 -168 -16 -338 14 -134 2 -207 -43 -247 -34 -32 -27
-48 27 -67 50 -18 85 -17 110 0 18 13 21 27 22 123 2 107 28 234 67 326 10 23
15 69 15 125 0 68 6 105 25 161 13 41 28 97 31 125 4 28 15 87 25 131 10 44
19 98 20 120 0 33 15 93 18 75 1 -3 8 -48 16 -100 20 -135 42 -242 70 -341 18
-61 25 -111 25 -175 1 -55 7 -104 16 -129 47 -122 63 -198 66 -307 2 -92 5
-115 20 -130 21 -21 59 -23 112 -4 54 19 61 36 27 69 -47 44 -57 117 -37 289
19 157 15 194 -27 308 -21 58 -23 74 -16 145 20 198 21 319 5 388 -9 38 -16
83 -16 102 0 18 -9 62 -20 97 -11 34 -20 81 -20 103 0 22 -4 55 -10 74 -11 39
-1 96 33 181 l21 56 31 -66 c18 -36 40 -97 49 -137 13 -54 31 -92 70 -148 29
-41 57 -92 63 -112 15 -52 33 -128 47 -193 8 -42 16 -56 31 -58 11 -2 26 -11
33 -20 10 -13 16 -14 32 -5 14 10 19 10 23 0 3 -9 7 -9 19 1 20 16 17 67 -7
114 -27 55 -37 36 -14 -29 21 -63 23 -77 10 -68 -5 3 -17 29 -26 58 -17 50
-44 95 -32 52 3 -11 8 -42 12 -70 6 -57 -5 -42 -28 40 l-15 50 -1 -54 c-1 -64
-12 -60 -22 7 -22 147 -52 230 -118 321 -38 53 -67 139 -52 154 12 12 27 -12
92 -142 62 -127 65 -136 49 -126 -6 3 -7 -1 -3 -10 4 -12 8 -13 13 -5 6 9 11
7 19 -6 6 -11 11 -15 11 -10 0 5 -11 28 -24 50 -41 71 -40 94 2 26 23 -39 51
-71 68 -79 16 -7 41 -25 57 -39 19 -19 27 -22 27 -11 0 20 -37 55 -71 67 -28
11 -43 51 -73 198 -14 69 -44 143 -71 174 -7 8 -19 44 -25 80 -6 35 -16 73
-22 84 -6 10 -11 54 -12 96 -1 64 -5 83 -26 113 -26 39 -107 87 -146 87 -12 0
-45 18 -73 40 -46 37 -51 44 -51 81 0 22 7 50 14 62 20 30 32 107 17 107 -6 0
-11 9 -11 20 0 11 -7 38 -16 60 -29 72 -109 99 -183 63z m142 -43 c23 -26 27
-39 27 -92 0 -57 1 -60 15 -42 22 29 18 7 -11 -54 -16 -34 -24 -66 -22 -84 7
-43 -15 -29 -27 18 -14 55 -20 61 -57 60 -45 -2 -58 -12 -58 -45 0 -15 -6 -36
-14 -46 -12 -16 -14 -13 -18 34 -3 29 -10 56 -16 60 -13 8 -35 62 -28 69 3 3
8 -3 12 -12 12 -32 19 -15 16 42 -3 47 0 62 19 86 44 56 114 58 162 6z m-48
-236 c0 -10 -6 -22 -15 -26 -12 -5 -12 -7 3 -7 9 -1 17 -5 17 -11 0 -5 -8 -11
-17 -11 -17 -1 -17 -2 0 -6 19 -5 23 -38 6 -49 -8 -4 -7 -9 2 -15 12 -7 11 -9
-1 -9 -12 -1 -11 -3 3 -11 16 -10 16 -12 -5 -30 -16 -14 -18 -17 -5 -13 9 3
17 1 17 -5 0 -6 -4 -11 -9 -11 -5 0 -11 -7 -15 -15 -3 -8 -2 -14 2 -14 20 3
22 -3 7 -18 -12 -11 -22 -14 -32 -7 -14 9 -15 31 -1 27 4 -2 5 4 2 12 -4 8
-10 15 -15 15 -5 0 -9 5 -9 11 0 6 7 9 14 6 10 -4 13 -1 9 9 -3 7 -11 14 -19
14 -8 0 -14 5 -14 10 0 6 5 10 11 10 5 0 7 5 4 10 -3 6 2 11 12 11 17 1 17 2
1 6 -10 2 -18 11 -18 19 0 8 8 14 18 15 14 0 14 2 -3 9 -20 9 -20 9 0 10 17 2
17 3 3 7 -10 2 -18 9 -18 14 0 5 8 9 18 10 15 0 15 1 1 7 -12 5 -14 13 -9 28
11 27 55 26 55 -2z m-85 -121 c-1 -95 5 -212 12 -219 4 -4 4 -12 0 -18 -11
-17 -10 -159 1 -173 6 -9 6 -13 -1 -13 -15 0 -42 65 -52 123 -6 37 -4 74 7
125 18 91 7 116 -58 126 -23 4 -40 8 -38 10 6 7 124 85 127 86 2 0 3 -21 2
-47z m208 -10 c17 -9 32 -20 32 -24 0 -3 -20 -12 -45 -18 -63 -16 -70 -34 -50
-132 15 -74 15 -83 -1 -137 -10 -31 -17 -61 -15 -65 1 -5 -4 -7 -11 -5 -9 3
-13 27 -13 74 0 38 -3 74 -8 81 -4 6 -3 14 2 17 10 7 9 56 -2 73 -4 6 -3 14 2
17 5 4 8 22 7 41 -2 20 0 38 4 40 4 3 5 26 2 52 l-5 47 34 -22 c19 -12 49 -29
67 -39z m-269 -70 c20 -13 22 -20 17 -51 -3 -21 -6 -47 -6 -59 0 -38 -14 -26
-31 27 -9 30 -11 51 -6 53 6 2 -12 11 -39 21 -27 10 -53 23 -59 28 -16 16 97
-2 124 -19z m370 23 c-2 -3 -26 -13 -53 -24 -27 -10 -51 -25 -52 -33 -9 -42
-31 -101 -36 -93 -3 5 -9 32 -13 60 -7 58 3 73 63 85 43 8 97 11 91 5z m-472
-31 l36 -15 -45 -40 c-25 -21 -69 -58 -98 -81 l-53 -42 7 44 c9 55 -2 46 -13
-12 l-9 -44 -1 38 c-2 64 38 139 84 158 30 12 52 11 92 -6z m541 -5 c19 -12
41 -38 52 -63 32 -69 22 -157 -10 -96 -7 11 -14 18 -17 15 -3 -3 -38 22 -77
56 -39 34 -75 65 -80 70 -11 9 49 37 79 38 11 0 35 -9 53 -20z m-465 -94 c9
-26 18 -69 20 -94 2 -52 -8 -59 -69 -48 -38 8 -64 29 -64 54 0 13 3 12 16 -6
8 -12 19 -22 24 -22 5 0 -2 16 -15 36 -14 20 -25 45 -25 55 0 19 69 81 85 76
5 -2 18 -25 28 -51z m358 24 c39 -32 55 -83 39 -124 -14 -39 -124 -64 -136
-31 -11 29 34 185 53 185 5 0 25 -13 44 -30z m-181 4 c0 -4 -8 -13 -17 -20
-17 -13 -17 -13 0 -14 23 0 22 -12 -3 -28 -17 -10 -23 -10 -35 2 -20 19 -19
26 3 26 16 1 16 1 0 14 -26 20 -22 26 17 26 19 0 35 -3 35 -6z m-3 -88 c4 -4
1 -11 -7 -17 -13 -8 -13 -10 -1 -18 12 -8 12 -12 -2 -25 -19 -20 -25 -20 -43
-2 -20 21 -17 28 9 20 l22 -6 -23 20 c-13 12 -22 25 -19 29 7 10 54 10 64 -1z
m-314 -79 c-2 -62 -8 -88 -32 -135 -29 -57 -66 -100 -77 -89 -3 3 -1 14 5 25
6 12 11 34 11 51 0 29 15 51 22 31 1 -5 3 18 3 53 0 39 6 74 18 96 9 19 15 36
13 39 -3 2 -23 -32 -45 -76 -49 -97 -66 -112 -45 -40 18 62 74 126 107 124 21
-1 22 -5 20 -79z m642 43 c32 -31 73 -125 61 -138 -3 -2 -22 29 -45 70 -52 95
-65 113 -41 58 11 -25 20 -67 20 -94 0 -42 2 -47 15 -36 9 7 17 11 19 9 24
-26 56 -87 56 -107 0 -25 -1 -25 -15 -6 -8 10 -15 15 -15 10 0 -5 6 -17 14
-25 15 -17 46 -126 45 -157 0 -11 -7 -2 -15 20 -7 21 -23 54 -35 73 -16 25
-20 44 -16 73 3 21 2 42 -2 45 -3 4 -11 21 -18 38 l-11 32 -1 -37 c-1 -20 4
-49 9 -64 25 -65 -29 -26 -67 50 -27 54 -45 152 -36 197 7 37 32 34 78 -11z
m-519 -64 c49 0 53 -2 68 -34 20 -42 20 -45 -3 -32 -11 5 -23 10 -28 10 -4 -1
9 -10 30 -21 39 -21 48 -44 20 -53 -10 -3 -35 -22 -56 -41 -21 -19 -43 -32
-49 -29 -18 11 -68 132 -75 180 -6 46 -6 46 17 34 13 -7 47 -13 76 -14z m400
-73 c-28 -81 -86 -165 -86 -123 0 5 -22 26 -50 47 -27 20 -50 41 -50 45 0 4
12 15 28 23 15 9 19 14 10 11 -22 -7 -22 -5 -2 38 15 30 20 34 48 29 17 -2 49
2 71 9 39 13 40 13 43 -10 2 -13 -4 -44 -12 -69z m-206 81 c0 -8 -27 -34 -35
-34 -8 0 -35 26 -35 34 0 3 16 6 35 6 19 0 35 -3 35 -6z m-4 -47 c7 -6 -20
-37 -31 -37 -10 0 -35 27 -35 38 0 10 56 9 66 -1z m-406 -31 c0 -12 -35 -84
-51 -105 l-19 -24 0 25 c0 24 48 108 62 108 5 0 8 -2 8 -4z m402 -36 c-25 -24
-29 -24 -48 -6 -22 22 -17 26 28 26 l42 0 -22 -20z m76 -56 c23 -19 42 -42 42
-50 0 -17 22 -18 38 -2 22 22 13 -8 -23 -79 -19 -37 -35 -73 -35 -80 0 -16
-41 -44 -52 -36 -5 3 -7 16 -4 28 3 13 1 27 -5 31 -6 3 -9 14 -6 24 2 10 1 24
-4 31 -4 7 -4 18 1 24 5 6 7 28 4 50 -2 22 -5 52 -7 68 -2 15 0 27 3 27 4 0
25 -16 48 -36z m-153 -25 c-2 -28 -6 -54 -9 -57 -3 -3 -1 -11 5 -19 9 -10 8
-17 -1 -28 -10 -12 -10 -18 -1 -29 9 -11 9 -16 1 -21 -7 -4 -10 -18 -7 -31 5
-30 -4 -37 -38 -28 -15 4 -25 13 -25 24 0 10 -16 49 -35 86 -41 78 -43 89 -14
72 18 -11 23 -10 27 1 7 20 74 81 89 81 9 0 11 -15 8 -51z m83 39 c-8 -24 -35
-32 -52 -15 -23 23 -20 27 20 27 23 0 34 -4 32 -12z m-438 -55 c-7 -36 -69
-177 -70 -160 -1 25 35 155 49 174 23 32 29 28 21 -14z m-75 -95 c-9 -35 -27
-87 -40 -115 -30 -66 -24 -69 10 -5 14 26 23 36 19 22 -3 -14 -20 -50 -36 -80
-23 -41 -26 -51 -11 -37 11 9 23 14 27 10 4 -4 5 -1 2 7 -7 17 103 248 126
268 13 10 15 7 13 -25 -2 -21 -8 -51 -14 -67 -13 -33 -91 -146 -100 -146 -4 0
-7 -8 -8 -17 0 -10 -5 -31 -11 -48 -17 -49 -42 -168 -42 -197 0 -16 -4 -28
-10 -28 -5 0 -10 21 -11 48 -1 51 -2 48 -29 -48 -17 -59 -25 -35 -11 31 16 71
7 72 -16 3 -11 -32 -24 -59 -31 -62 -7 -2 -4 17 8 54 11 31 20 61 20 66 0 18
-21 -4 -40 -43 -36 -70 -40 -41 -4 35 40 89 42 104 9 71 -13 -14 -32 -25 -42
-25 -22 0 35 51 89 80 37 20 61 50 64 80 1 8 10 42 20 75 10 33 17 67 16 76
-2 9 7 43 20 75 20 51 23 55 26 32 2 -15 -4 -56 -13 -90z m518 106 c7 -7 -30
-44 -45 -44 -4 0 -8 7 -8 15 0 8 -4 15 -10 15 -5 0 -10 5 -10 10 0 11 63 14
73 4z m453 -36 c10 -18 18 -51 20 -73 2 -22 10 -62 18 -90 9 -27 14 -51 11
-53 -8 -8 -37 62 -56 135 -28 111 -25 143 7 81z m-447 -17 c8 -2 -38 -41 -47
-41 -12 0 -43 35 -37 42 4 4 66 3 84 -1z m-189 -109 c15 -38 15 -37 -29 -46
l-33 -6 7 46 c10 69 15 79 29 57 7 -10 18 -33 26 -51z m185 58 c4 -6 -4 -19
-17 -30 -23 -19 -23 -19 -2 -20 12 0 25 -7 28 -15 7 -20 -36 -37 -70 -29 -32
8 -33 44 -1 44 l22 1 -22 18 c-30 25 -29 29 10 34 17 2 35 5 39 5 4 1 10 -3
13 -8z m160 -56 l7 -50 -36 4 c-20 2 -36 6 -36 9 0 18 45 102 51 96 4 -4 11
-31 14 -59z m-148 -68 c-3 -8 -2 -16 4 -18 5 -2 -1 -33 -14 -71 -12 -38 -26
-64 -31 -60 -4 4 -6 3 -4 -2 2 -5 0 -11 -4 -12 -5 -2 -8 0 -7 3 0 4 -4 10 -9
13 -6 3 -19 32 -30 64 -16 48 -17 60 -6 64 8 3 21 0 29 -7 17 -14 45 -7 45 11
0 9 -4 9 -14 0 -10 -8 -16 -9 -21 -1 -3 5 -15 10 -26 10 -10 0 -19 5 -19 10 0
6 25 10 56 10 45 0 55 -3 51 -14z m131 -9 c36 -29 55 -93 67 -227 6 -74 14
-124 17 -110 3 14 6 -13 6 -60 0 -47 -4 -107 -10 -135 -6 -27 -12 -90 -13
-139 -2 -79 0 -93 24 -135 25 -45 26 -50 22 -186 -6 -218 -5 -295 6 -360 6
-33 11 -51 12 -41 1 18 2 18 21 1 11 -10 20 -21 20 -24 0 -8 -74 -31 -99 -31
-30 0 -35 16 -37 135 -1 86 0 97 6 50 l7 -60 1 49 c1 31 -8 81 -25 133 l-27
83 22 20 c12 12 22 25 22 30 0 5 11 -2 25 -15 23 -24 24 -28 20 -147 l-4 -123
9 110 c5 61 11 122 14 137 4 20 2 26 -9 22 -30 -12 -45 38 -48 164 -1 66 1
118 5 116 14 -9 8 7 -13 38 -48 66 -130 370 -107 394 9 8 48 -15 48 -29 1 -7
7 -25 16 -42 14 -29 13 -7 -1 28 -4 9 -3 17 3 17 16 0 45 -52 58 -105 l12 -50
1 39 c1 51 -34 123 -69 141 -15 8 -48 19 -73 26 -26 6 -58 22 -72 35 -25 23
-34 67 -15 79 5 3 19 38 30 77 32 106 75 138 128 95z m-274 -9 c18 -28 76
-186 76 -207 0 -28 -33 -51 -103 -72 -98 -29 -139 -81 -136 -174 1 -23 3 -19
13 21 12 49 53 120 63 110 3 -2 0 -21 -7 -41 -7 -20 -9 -39 -6 -42 3 -3 11 16
18 42 12 43 41 75 56 61 3 -4 0 -46 -6 -94 -16 -115 -78 -289 -114 -319 -22
-19 -5 142 21 201 12 27 20 51 17 53 -2 2 -14 -21 -27 -52 -20 -49 -24 -53
-31 -35 -13 36 -23 224 -11 217 7 -4 13 24 17 81 11 140 25 196 58 236 36 43
79 49 102 14z m190 -402 c-3 -56 -10 -121 -14 -146 l-8 -45 -3 40 c-1 22 -2
49 -2 60 1 11 -7 47 -17 80 -9 33 -20 81 -24 106 l-7 47 41 -20 41 -21 -7
-101z m-124 130 c0 -3 -7 -38 -16 -78 -9 -40 -16 -83 -16 -95 0 -13 -5 -20
-11 -16 -6 4 -8 -3 -4 -18 3 -13 1 -44 -4 -69 l-8 -45 4 51 c2 28 0 55 -5 60
-4 5 -10 49 -12 99 -3 79 -1 90 14 93 15 3 17 -2 13 -30 l-5 -33 10 29 c5 16
7 33 5 37 -3 4 1 10 7 12 17 7 28 8 28 3z m-68 -220 c8 5 9 1 3 -12 -4 -10
-10 -58 -13 -106 -5 -90 -15 -112 -26 -57 -9 49 -7 115 7 188 12 65 12 65 15
23 2 -28 7 -40 14 -36z m228 -76 c0 -69 -10 -130 -21 -130 -5 0 -9 64 -8 143
1 139 1 141 15 92 7 -27 14 -75 14 -105z m-269 -110 c6 -36 9 -74 7 -85 -4
-16 -8 -13 -21 17 -18 40 -22 94 -10 149 7 30 8 31 10 9 2 -14 8 -54 14 -90z
m298 18 c1 -68 -14 -117 -31 -100 -8 8 -8 26 1 68 6 32 11 73 12 93 1 60 17 5
18 -61z m-340 -80 c0 -18 -9 -55 -19 -83 l-18 -50 -1 67 c-1 75 5 98 25 98 9
0 14 -11 13 -32z m391 -61 c10 -154 -8 -242 -43 -220 -33 20 -47 140 -26 217
12 43 21 39 39 -17 7 -21 14 -36 16 -34 2 2 -3 23 -11 47 -21 60 -20 102 3 98
14 -3 18 -18 22 -91z m-445 -47 c-2 -90 -7 -127 -19 -145 -21 -32 -30 -31 -44
0 -16 36 -15 104 3 155 14 40 52 110 60 110 2 0 2 -54 0 -120z m95 -38 c0 -97
-35 -164 -66 -126 -20 25 -12 112 18 189 l22 59 13 -30 c6 -16 12 -57 13 -92z
m-64 -217 c-9 -29 -14 -61 -10 -71 4 -14 3 -15 -4 -6 -12 18 -23 -33 -20 -102
l1 -51 7 65 c6 53 7 45 5 -44 -2 -130 -7 -138 -82 -118 -59 16 -60 17 -37 43
17 19 19 19 25 2 3 -10 11 17 19 66 12 79 10 197 -6 282 -6 33 -6 33 10 14 16
-20 16 -20 38 5 l23 26 24 -29 c24 -28 24 -29 7 -82z"/>
<path d="M2473 1553 c15 -16 39 -57 53 -89 14 -33 23 -45 19 -29 -10 48 -48
116 -75 133 -24 15 -24 15 3 -15z"/>
<path d="M2510 1164 c0 -6 11 -37 25 -70 13 -32 24 -52 25 -42 0 9 -11 40 -25
70 -14 29 -25 48 -25 42z"/>
<path d="M2144 1553 c-31 -33 -49 -67 -57 -108 -4 -19 3 -10 19 25 14 30 37
67 51 83 15 15 23 27 19 27 -4 0 -18 -12 -32 -27z"/>
<path d="M2038 462 c4 -152 9 -166 10 -32 1 63 -2 120 -6 127 -4 6 -6 -36 -4
-95z"/>
<path d="M253 1648 c-28 -52 -52 -108 -48 -108 3 0 21 32 40 70 35 69 42 100
8 38z"/>
<path d="M2955 1460 c4 -14 15 -43 25 -65 l18 -40 -1 43 c-1 31 -8 48 -25 65
l-24 22 7 -25z"/>
</g>
</svg>
